<?xml version="1.0" encoding="utf-8"?>
<!-- Generator: Adobe Illustrator 27.0.0, SVG Export Plug-In . SVG Version: 6.00 Build 0)  -->
<svg version="1.1" xmlns="http://www.w3.org/2000/svg" xmlns:xlink="http://www.w3.org/1999/xlink" x="0px" y="0px"
	 viewBox="0 0 283.5 283.5" style="enable-background:new 0 0 283.5 283.5;" xml:space="preserve">
<style type="text/css">
	.st0{fill:#020719;}
	.st1{fill:#FCFCFC;}
	.st2{fill:#0065F6;}
</style>
<g id="Capa_1">
	<path class="st0" d="M283,39.2c0-4-0.6-7.9-1.9-11.6C275.7,11,261,0,244,0C175.8,0,107.6,0,39.4,0c-8.9,0-16.9,2.9-23.8,8.5
		C5.4,16.7,0.4,27.4,0.4,40.6c0,33.8,0,67.6,0,101.4c0,34,0,67.9,0,101.9c0,7.1,1.7,13.8,5.4,19.9c7.6,12.6,18.9,19.6,33.6,19.7
		c68.1,0.2,136.3,0.1,204.4,0.1c1.9,0,3.7-0.2,5.6-0.4c20.1-2.9,33.6-19.9,33.6-38.6C283.1,176,283,107.6,283,39.2z"/>
	<g>
		<path class="st1" d="M81,32.3c0,4.9,0,9.5,0,14.2c0,30.8,0,61.5,0,92.3c0,4.3,0.8,8.5,3.2,12.2c3.1,4.7,7.6,7.3,13.1,8.1
			c4.1,0.6,8.1,0.5,12.2-0.5c8.6-2.2,14-9.3,14-18.2c0-28,0-56,0-84c0-7.5,0-15,0-22.5c0-0.5-0.1-1.1,0.1-1.6c16.7,0,33.3,0,50.1,0
			c0.2,0.8,0.1,1.7,0.1,2.5c0,15.3,0,30.6,0,45.9c0,24.7,0,49.3,0,74c0,9.3,0,18.6,0,27.9c0,1.1-0.3,1.8-1.1,2.4
			c-10,8.6-20.7,16.1-32.3,22.3c-2.9,1.5-5.8,2.8-8.7,4.2c-0.4,0.2-0.9,0.4-1.4,0.4c-2.2,0-4.4,0-6.8,0c-0.1-6.8,0.1-13.5-0.1-20.4
			c-1.2,1-2.2,1.9-3.3,2.8c-8.1,7.1-17.5,11.1-28.1,12.6c-9.7,1.3-19.2,0.7-28.4-2.7c-12.1-4.4-20.8-12.5-26.7-23.8
			c-4.6-8.7-6.7-18.2-7.7-27.9c-0.4-3.7-0.4-7.4-0.4-11.1c0-29.6,0-59.3,0-88.9c0-6.3,0-12.5,0-18.8c0-0.4,0-0.8,0-1.3
			C46.2,32.3,63.5,32.3,81,32.3z"/>
		<path class="st2" d="M238.1,144.2c-1.8,2.3-3.6,4.5-5.3,6.7c-2.2,2.8-4.6,5.5-6.9,8.3c-7.2,8.8-15.2,16.8-23.5,24.5
			c-6.1,5.6-12.5,11-19.2,16c-9.3,7-18.9,13.3-29,19c-7.8,4.4-15.7,8.5-23.9,12c-1.5,0.6-2.9,1.3-4.4,1.8c-1.7,0.7-2.5,0.2-2.5-1.7
			c0-0.8,0-1.7,0-2.5c0-1.2,0.5-1.9,1.6-2.5c5-2.5,10-5.2,14.8-8c10.4-6.1,20.4-12.9,30-20.2c11.1-8.5,21.6-17.7,31.3-27.8
			c5.9-6.1,11.5-12.4,16.8-19.1c3.4-4.3,6.7-8.6,9.9-13.1c0.2-0.2,0.3-0.4,0.5-0.8c-1.1-0.9-2.2-1.8-3.4-2.6c-1.5-1.2-3-2.4-4.6-3.4
			c-2.8-1.9-1.6-4.8,0.5-5.7c3.4-1.4,6.7-2.9,10.1-4.4c6.3-2.8,12.5-5.5,18.8-8.3c0.8-0.4,1.6-0.8,2.6-0.8c1.7,0,2.5,0.8,2.4,2.4
			c-0.1,2-0.3,4-0.5,6c-0.5,4.4-1,8.8-1.5,13.3c-0.5,4.1-1,8.2-1.4,12.3c-0.1,0.6-0.1,1.3-0.2,1.9c-0.1,1.2-0.6,2.1-1.6,2.8
			c-1.1,0.8-2.1,0.7-3.4-0.2C243.5,148.2,240.8,146.2,238.1,144.2z"/>
		<path class="st1" d="M241.9,158.5c1.6,0.9,3,2.1,4.4,3.2c0.6,0.5,0.7,1.1,0.7,1.8c0,1.3,0,2.5,0,3.8c0,26.8,0,53.5,0,80.3
			c0,0.3,0,0.6,0,1c-0.1,1.7-0.8,2.4-2.5,2.5c-1.2,0-2.3,0-3.5,0c-5.3,0-10.5,0-15.8,0c-0.6,0-1.3,0-1.9-0.1c-1.2-0.2-1.8-0.8-1.9-2
			c0-0.4,0-0.7,0-1.1c0-21.7,0-43.3,0-65c0-1.1,0.3-1.9,1.1-2.6c6.5-6.4,12.5-13.3,18.2-20.5C241,159.4,241.3,158.9,241.9,158.5z"/>
		<path class="st1" d="M184.3,212.1c8.9-6,17.3-12.6,25.4-19.7c0.3,0.6,0.2,1.2,0.2,1.7c0,17.9,0,35.9,0,53.8c0,0.4,0,0.9,0,1.3
			c-0.1,1.1-0.8,1.7-1.8,1.9c-0.5,0.1-1,0.1-1.4,0.1c-6.5,0-13,0-19.4,0c-2.2,0-2.9-0.7-2.9-2.8c0-11.9,0-23.8,0-35.7
			C184.2,212.5,184.3,212.4,184.3,212.1z"/>
		<path class="st1" d="M146.8,233.5c8.8-4.1,17.2-8.6,25.4-13.6c0.2,0.4,0.2,0.8,0.2,1.2c0,9,0,18,0,27.1c0,2.3-0.7,3-2.9,3
			c-6.6,0-13.3,0-19.9,0c-2.1,0-2.8-0.7-2.8-2.8C146.8,243.4,146.8,238.5,146.8,233.5z"/>
	</g>
</g>
<g id="Modo_de_aislamiento">
</g>
</svg>
